<?xml version="1.0" encoding="UTF-8" standalone="no"?>
<svg width="16px" height="16px" viewBox="0 0 16 16" version="1.1" xmlns="http://www.w3.org/2000/svg" xmlns:xlink="http://www.w3.org/1999/xlink">
    <!-- Generator: Sketch 48.2 (47327) - http://www.bohemiancoding.com/sketch -->
    <title>btn_login_fb</title>
    <desc>Created with Sketch.</desc>
    <defs></defs>
    <g id="ICON" stroke="none" stroke-width="1" fill="none" fill-rule="evenodd" transform="translate(-196.000000, -267.000000)">
        <g id="btn_login_fb" transform="translate(196.000000, 267.000000)" fill="#FFFFFF">
            <path d="M10.9454873,15.5 L10.9454873,9.28450627 L12.710618,9.28450627 L12.9390244,7.09069229 L10.9454873,7.09069229 L10.9454873,5.79862185 C10.9454873,5.31399497 11.269922,5.20040636 11.5004985,5.20040636 L12.9067437,5.20040636 L12.9067437,3.06928044 L10.9690875,3.06097561 C8.81821588,3.06097561 8.32912249,4.65201984 8.32912249,5.66788779 L8.32912249,7.08854911 L7.08536585,7.08854911 L7.08536585,9.28450627 L8.32912249,9.28450627 L8.32912249,15.5 L4.27655389,15.5 C2.19082077,15.5 0.5,13.8091792 0.5,11.7234461 L0.5,4.27655389 C0.5,2.19082077 2.19082077,0.5 4.27655389,0.5 L11.7234461,0.5 C13.8091792,0.5 15.5,2.19082077 15.5,4.27655389 L15.5,11.7234461 C15.5,13.8091792 13.8091792,15.5 11.7234461,15.5 L10.9454873,15.5 Z" id="login_fb"></path>
        </g>
    </g>
</svg>