<?xml version="1.0" encoding="UTF-8" standalone="no"?>
<svg width="22px" height="22px" viewBox="0 0 22 22" version="1.1" xmlns="http://www.w3.org/2000/svg" xmlns:xlink="http://www.w3.org/1999/xlink">
    <!-- Generator: Sketch 48.2 (47327) - http://www.bohemiancoding.com/sketch -->
    <title>btn_collection</title>
    <desc>Created with Sketch.</desc>
    <defs>
        <path d="M12.1825843,1.71549017 L14.2585779,5.92868706 C14.4437967,6.30602632 14.8052305,6.56863406 15.223259,6.631099 L19.9026052,7.32458739 C20.9573231,7.48138715 21.3727791,8.76765512 20.6061792,9.50193694 L17.2040707,12.7603125 C16.9005178,13.0522405 16.7603174,13.4729228 16.8297745,13.8872311 L17.6092368,18.5121867 C17.7854518,19.5536941 16.6792842,20.3440669 15.7377555,19.8481717 L11.5600435,17.6491506 C11.1857473,17.4515574 10.7381353,17.4502826 10.3625528,17.6440515 L6.16554712,19.8073783 C5.2201597,20.2956247 4.12042331,19.4963283 4.30564207,18.4560958 L5.12497784,13.8387889 C5.19829359,13.4244806 5.06195201,13.0025235 4.75968528,12.7080459 L1.38587412,9.42162487 C0.625705455,8.68096908 1.0527376,7.39725069 2.10745554,7.24937449 L6.79194668,6.59540475 C7.21126137,6.53676419 7.57526768,6.27670604 7.76434517,5.90191637 L9.87635353,1.70529182 C10.3509766,0.760668854 11.7143925,0.765768033 12.1825843,1.71549017 Z" id="path-1"></path>
        <filter x="-17.5%" y="-13.2%" width="135.0%" height="136.8%" filterUnits="objectBoundingBox" id="filter-2">
            <feOffset dx="0" dy="1" in="SourceAlpha" result="shadowOffsetOuter1"></feOffset>
            <feMorphology radius="1" operator="erode" in="SourceAlpha" result="shadowInner"></feMorphology>
            <feOffset dx="0" dy="1" in="shadowInner" result="shadowInner"></feOffset>
            <feComposite in="shadowOffsetOuter1" in2="shadowInner" operator="out" result="shadowOffsetOuter1"></feComposite>
            <feGaussianBlur stdDeviation="1" in="shadowOffsetOuter1" result="shadowBlurOuter1"></feGaussianBlur>
            <feColorMatrix values="0 0 0 0 0   0 0 0 0 0   0 0 0 0 0  0 0 0 1 0" type="matrix" in="shadowBlurOuter1"></feColorMatrix>
        </filter>
    </defs>
    <g id="ICON" stroke="none" stroke-width="1" fill="none" fill-rule="evenodd" transform="translate(-269.000000, -229.000000)">
        <g id="btn_collection" transform="translate(269.000000, 229.000000)">
            <g id="Stroke-3">
                <use fill="black" fill-opacity="1" filter="url(#filter-2)" xlink:href="#path-1"></use>
                <path stroke="#FFFFFF" stroke-width="1" d="M11.7340966,1.9365304 L11.7341181,1.93657402 C11.4485798,1.35736265 10.612486,1.35387725 10.3229826,1.93006395 L8.21075421,6.12712508 C7.94756679,6.64881559 7.44232118,7.00931653 6.86107785,7.09060257 L2.17687877,7.74453145 C1.53229721,7.83490469 1.27338285,8.61393078 1.73475844,9.06346327 L5.10859413,12.3499082 C5.52934102,12.7598129 5.71951519,13.3484559 5.61728697,13.9261486 L4.79789978,18.5437448 C4.68562603,19.1743008 5.35705234,19.6621827 5.93646565,19.3629442 L10.1333063,17.1997025 C10.6544955,16.9308129 11.2748802,16.9332166 11.7929354,17.2067014 L15.9707589,19.4057811 C16.5474816,19.7095361 17.2230857,19.2270829 17.1161899,18.5952819 L16.336656,13.9699003 C16.2399129,13.3928313 16.4348922,12.8063352 16.8582275,12.3992135 L20.2603189,9.14085429 C20.7258375,8.69496091 20.4738488,7.91500652 19.8293048,7.81918526 L15.1493656,7.12560863 C14.5689826,7.03888344 14.0673567,6.67384806 13.8100687,6.14968367 L11.7340966,1.93653041 Z M11.7340966,1.93653041 L11.7340751,1.93648678 L11.7340966,1.9365304 Z"></path>
            </g>
        </g>
    </g>
</svg>