<?xml version="1.0" encoding="UTF-8" standalone="no"?>
<svg width="22px" height="22px" viewBox="0 0 22 22" version="1.1" xmlns="http://www.w3.org/2000/svg" xmlns:xlink="http://www.w3.org/1999/xlink">
    <!-- Generator: Sketch 48.2 (47327) - http://www.bohemiancoding.com/sketch -->
    <title>btn_backpack_active</title>
    <desc>Created with Sketch.</desc>
    <defs>
        <filter x="-23.7%" y="-17.5%" width="147.4%" height="145.0%" filterUnits="objectBoundingBox" id="filter-1">
            <feOffset dx="0" dy="1" in="SourceAlpha" result="shadowOffsetOuter1"></feOffset>
            <feGaussianBlur stdDeviation="1" in="shadowOffsetOuter1" result="shadowBlurOuter1"></feGaussianBlur>
            <feColorMatrix values="0 0 0 0 0   0 0 0 0 0   0 0 0 0 0  0 0 0 0.5 0" type="matrix" in="shadowBlurOuter1" result="shadowMatrixOuter1"></feColorMatrix>
            <feMerge>
                <feMergeNode in="shadowMatrixOuter1"></feMergeNode>
                <feMergeNode in="SourceGraphic"></feMergeNode>
            </feMerge>
        </filter>
    </defs>
    <g id="ICON" stroke="none" stroke-width="1" fill="none" fill-rule="evenodd" transform="translate(-269.000000, -189.000000)" stroke-linecap="round">
        <g id="btn_backpack_active" transform="translate(269.000000, 189.000000)" stroke="#FFD100">
            <g id="Group-2" filter="url(#filter-1)" transform="translate(2.000000, 1.000000)">
                <path d="M15.0993624,19.757 L3.52393778,19.757 C1.40478709,19.757 -0.234938935,17.973 0.0276775033,15.953 L1.3267049,5.96475 C1.54715696,4.271 3.04607476,3 4.82322545,3 L13.800335,3 C15.5774857,3 17.0764035,4.271 17.2965953,5.96475 L18.595883,15.953 C18.8584994,17.973 17.2187734,19.757 15.0993624,19.757 Z" id="Stroke-1"></path>
                <path d="M1.28378378,6.5 C1.28378378,6.5 3.27177683,12.02075 9.2779471,12.02075 C15.2841174,12.02075 17.3567564,6.5 17.3567564,6.5" id="Stroke-3"></path>
                <path d="M12.8378378,8.629875 L12.8378378,13.318125" id="Stroke-5"></path>
                <path d="M5.64864865,8.5 L5.64864865,13.18825" id="Stroke-7"></path>
                <path d="M7.95945946,15.5 L10.5219904,15.5" id="Stroke-9"></path>
                <path d="M7.36357275,2.9225 C7.25139467,2.66975 7.18918919,2.3915 7.18918919,2.0995 C7.18918919,0.93975 8.16781933,0 9.37497001,0 C10.5821207,0 11.5607508,0.93975 11.5607508,2.0995 C11.5607508,2.38925 11.4998467,2.6655 11.38897,2.91675" id="Stroke-11"></path>
            </g>
        </g>
    </g>
</svg>