<?xml version="1.0" encoding="UTF-8" standalone="no"?>
<svg width="16px" height="16px" viewBox="0 0 16 16" version="1.1" xmlns="http://www.w3.org/2000/svg" xmlns:xlink="http://www.w3.org/1999/xlink">
    <!-- Generator: Sketch 48.2 (47327) - http://www.bohemiancoding.com/sketch -->
    <title>btn_login_twitter</title>
    <desc>Created with Sketch.</desc>
    <defs></defs>
    <g id="ICON" stroke="none" stroke-width="1" fill="none" fill-rule="evenodd" transform="translate(-232.000000, -267.000000)">
        <g id="btn_login_twitter" transform="translate(232.000000, 267.000000)" fill="#FFFFFF">
            <path d="M5.031936,14.503392 C11.069888,14.503392 14.371776,9.501088 14.371776,5.163488 C14.371776,5.021344 14.368896,4.87984 14.362432,4.739104 C15.003328,4.275808 15.560448,3.697696 16,3.039456 C15.41184,3.300704 14.778816,3.476832 14.11488,3.556256 C14.792576,3.14992 15.31296,2.506848 15.558336,1.740384 C14.923904,2.116384 14.221696,2.38992 13.473984,2.53712 C12.874944,1.899104 12.021824,1.5 11.077824,1.5 C9.264832,1.5 7.794688,2.970144 7.794688,4.782432 C7.794688,5.040096 7.823552,5.290528 7.879872,5.530912 C5.151744,5.39376 2.73248,4.087456 1.113664,2.101216 C0.831488,2.586208 0.669056,3.14992 0.669056,3.751136 C0.669056,4.890016 1.24864,5.895392 2.129856,6.483552 C1.591424,6.466976 1.085504,6.319008 0.643072,6.072864 C0.642368,6.08656 0.642368,6.10032 0.642368,6.11472 C0.642368,7.704736 1.774016,9.031968 3.275968,9.33296 C3.000256,9.407968 2.710144,9.44848 2.410624,9.44848 C2.199104,9.44848 1.993408,9.427488 1.793536,9.389216 C2.211392,10.693408 3.423168,11.642464 4.86016,11.669216 C3.736384,12.549728 2.321088,13.0744 0.783104,13.0744 C0.518208,13.0744 0.25696,13.059232 0,13.028896 C1.452864,13.959968 3.177792,14.503392 5.031936,14.503392" id="Fill-1"></path>
        </g>
    </g>
</svg>