<?xml version="1.0" encoding="UTF-8" standalone="no"?>
<svg width="22px" height="22px" viewBox="0 0 22 22" version="1.1" xmlns="http://www.w3.org/2000/svg" xmlns:xlink="http://www.w3.org/1999/xlink">
    <!-- Generator: Sketch 48.2 (47327) - http://www.bohemiancoding.com/sketch -->
    <title>btn_MSG detail_rating_unlike</title>
    <desc>Created with Sketch.</desc>
    <defs>
        <filter x="-17.5%" y="-12.5%" width="135.0%" height="135.0%" filterUnits="objectBoundingBox" id="filter-1">
            <feOffset dx="0" dy="1" in="SourceAlpha" result="shadowOffsetOuter1"></feOffset>
            <feGaussianBlur stdDeviation="1" in="shadowOffsetOuter1" result="shadowBlurOuter1"></feGaussianBlur>
            <feColorMatrix values="0 0 0 0 0   0 0 0 0 0   0 0 0 0 0  0 0 0 0.5 0" type="matrix" in="shadowBlurOuter1" result="shadowMatrixOuter1"></feColorMatrix>
            <feMerge>
                <feMergeNode in="shadowMatrixOuter1"></feMergeNode>
                <feMergeNode in="SourceGraphic"></feMergeNode>
            </feMerge>
        </filter>
    </defs>
    <g id="ICON" stroke="none" stroke-width="1" fill="none" fill-rule="evenodd" transform="translate(-17.000000, -229.000000)">
        <g id="btn_MSG-detail_rating_unlike" transform="translate(17.000000, 229.000000)">
            <g id="Group" filter="url(#filter-1)" transform="translate(1.000000, 1.000000)">
                <circle id="Oval-3" stroke="#FFFFFF" cx="10" cy="10" r="9.5"></circle>
                <path d="M6.42169826,12.84786 C6.3119968,12.6155872 6.36231857,12.3060418 6.53408354,12.15786 C6.70618398,12.0096781 6.93397385,12.0774054 7.04333982,12.3105872 C7.04535269,12.3137691 7.67672313,13.4846781 9.98548581,13.4846781 C12.3130353,13.4846781 12.9541346,12.3042236 12.9598377,12.29286 C13.0718875,12.0624054 13.3010193,11.9987691 13.4711069,12.1510418 C13.640859,12.3033145 13.6874905,12.6133145 13.5751052,12.8437691 C13.4932485,13.0114963 12.6968226,14.4842236 9.98548581,14.4842236 C7.27012325,14.4842236 6.50020021,13.0155872 6.42169826,12.84786 Z" id="Fill-3" fill="#FFFFFF" transform="translate(10.000000, 13.276214) scale(1, -1) translate(-10.000000, -13.276214) "></path>
                <path d="M5.35518182,9.77622727 L5.35518182,9.77622727 C4.96245455,9.77622727 4.64109091,9.45531818 4.64109091,9.06259091 L4.64109091,8.25759091 C4.64109091,7.86486364 4.96245455,7.5435 5.35518182,7.5435 C5.74790909,7.5435 6.06927273,7.86486364 6.06927273,8.25759091 L6.06927273,9.06259091 C6.06927273,9.45531818 5.74790909,9.77622727 5.35518182,9.77622727" id="Fill-4" fill="#FFFFFF"></path>
                <path d="M14.3049091,9.77622727 L14.3049091,9.77622727 C13.9121818,9.77622727 13.5908182,9.45531818 13.5908182,9.06259091 L13.5908182,8.25759091 C13.5908182,7.86486364 13.9121818,7.5435 14.3049091,7.5435 C14.6976364,7.5435 15.0185455,7.86486364 15.0185455,8.25759091 L15.0185455,9.06259091 C15.0185455,9.45531818 14.6976364,9.77622727 14.3049091,9.77622727" id="Fill-6" fill="#FFFFFF"></path>
                <path d="M4.97077273,5.72436364 C4.52713636,5.72436364 4.16713636,5.57936364 4.14577273,5.57027273 C3.99940909,5.50981818 3.93031818,5.34345455 3.99031818,5.19754545 C4.05031818,5.05209091 4.21622727,4.98209091 4.36213636,5.04163636 C4.37031818,5.04481818 4.94031818,5.27027273 5.40168182,5.073 C5.62668182,4.97663636 5.78940909,4.79572727 5.89940909,4.51981818 C5.95759091,4.373 6.12395455,4.30163636 6.27031818,4.35981818 C6.41713636,4.418 6.4885,4.58436364 6.43031818,4.73072727 C6.26304545,5.15118182 5.99077273,5.44390909 5.62213636,5.60027273 C5.40395455,5.69254545 5.17804545,5.72436364 4.97077273,5.72436364" id="Fill-8" fill="#FFFFFF"></path>
                <path d="M14.5526364,5.72436364 C14.3453636,5.72436364 14.1194545,5.69254545 13.9012727,5.60027273 C13.5326364,5.44390909 13.2603636,5.15118182 13.0930909,4.73072727 C13.0349091,4.58436364 13.1062727,4.418 13.2530909,4.35981818 C13.4003636,4.30118182 13.5658182,4.373 13.624,4.51981818 C13.7344545,4.79663636 13.8980909,4.978 14.1244545,5.07390909 C14.5830909,5.26845455 15.1544545,5.04436364 15.1603636,5.04209091 C15.3067273,4.98163636 15.4730909,5.05209091 15.5330909,5.19754545 C15.5930909,5.34345455 15.5235455,5.50981818 15.3776364,5.57027273 C15.3562727,5.57936364 14.9962727,5.72436364 14.5526364,5.72436364" id="Fill-10" fill="#FFFFFF"></path>
            </g>
        </g>
    </g>
</svg>