<?xml version="1.0" encoding="UTF-8" standalone="no"?>
<svg width="22px" height="22px" viewBox="0 0 22 22" version="1.1" xmlns="http://www.w3.org/2000/svg" xmlns:xlink="http://www.w3.org/1999/xlink">
    <!-- Generator: Sketch 48.2 (47327) - http://www.bohemiancoding.com/sketch -->
    <title>btn_chatroom_cancel</title>
    <desc>Created with Sketch.</desc>
    <defs></defs>
    <g id="ICON" stroke="none" stroke-width="1" fill="none" fill-rule="evenodd" transform="translate(-606.000000, -190.000000)" opacity="0.2">
        <g id="btn_chatroom_cancel" transform="translate(606.000000, 190.000000)" fill="#FFFFFF">
            <g id="Group-2" transform="translate(2.500000, 2.500000)">
                <path d="M9,18 C4.02943725,18 0,13.9705627 0,9 C0,4.02943725 4.02943725,0 9,0 C13.9705627,0 18,4.02943725 18,9 C18,13.9705627 13.9705627,18 9,18 Z M9.725875,9 L13.349375,5.3765 C13.549875,5.176 13.549875,4.851 13.349375,4.6505 C13.148875,4.45 12.823875,4.45 12.623375,4.6505 L8.999875,8.274 L5.376375,4.6505 C5.175875,4.45 4.850875,4.45 4.650375,4.6505 C4.449875,4.851 4.449875,5.176 4.650375,5.3765 L8.273875,9 L4.650375,12.6235 C4.449875,12.824 4.449875,13.149 4.650375,13.3495 C4.750375,13.45 4.881875,13.5 5.013375,13.5 C5.144875,13.5 5.275875,13.45 5.376375,13.3495 L8.999875,9.726 L12.623375,13.3495 C12.723875,13.45 12.854875,13.5 12.986375,13.5 C13.117875,13.5 13.249375,13.45 13.349375,13.3495 C13.549875,13.149 13.549875,12.824 13.349375,12.6235 L9.725875,9 Z" id="Combined-Shape"></path>
            </g>
        </g>
    </g>
</svg>