<?xml version="1.0" encoding="UTF-8" standalone="no"?>
<svg width="22px" height="22px" viewBox="0 0 22 22" version="1.1" xmlns="http://www.w3.org/2000/svg" xmlns:xlink="http://www.w3.org/1999/xlink">
    <!-- Generator: Sketch 48.2 (47327) - http://www.bohemiancoding.com/sketch -->
    <title>btn_setting</title>
    <desc>Created with Sketch.</desc>
    <defs>
        <filter x="-22.5%" y="-17.5%" width="145.0%" height="145.0%" filterUnits="objectBoundingBox" id="filter-1">
            <feOffset dx="0" dy="1" in="SourceAlpha" result="shadowOffsetOuter1"></feOffset>
            <feGaussianBlur stdDeviation="1" in="shadowOffsetOuter1" result="shadowBlurOuter1"></feGaussianBlur>
            <feColorMatrix values="0 0 0 0 0   0 0 0 0 0   0 0 0 0 0  0 0 0 0.5 0" type="matrix" in="shadowBlurOuter1" result="shadowMatrixOuter1"></feColorMatrix>
            <feMerge>
                <feMergeNode in="shadowMatrixOuter1"></feMergeNode>
                <feMergeNode in="SourceGraphic"></feMergeNode>
            </feMerge>
        </filter>
    </defs>
    <g id="ICON" stroke="none" stroke-width="1" fill="none" fill-rule="evenodd" transform="translate(-227.000000, -189.000000)" stroke-linecap="round" stroke-linejoin="round">
        <g id="btn_setting" transform="translate(227.000000, 189.000000)" stroke="#FEFEFE">
            <g id="settings" filter="url(#filter-1)" transform="translate(1.000000, 1.000000)">
                <path d="M3.37751351,8.20875676 C3.5267027,7.69254054 3.72886486,7.192 3.99697297,6.71794595 L2.72562162,5.15902703 C2.37535135,4.72875676 2.4067027,4.10335135 2.79913514,3.71145946 L3.71156757,2.79902703 C4.10345946,2.40659459 4.72886486,2.37524324 5.15859459,2.72551351 L6.71805405,3.99686486 L6.71913514,3.9947027 C7.18940541,3.73524324 7.6867027,3.52443243 8.21102703,3.37848649 L8.41481081,1.37686486 C8.47102703,0.824972973 8.93535135,0.405513514 9.48994595,0.405513514 L10.7802162,0.405513514 C11.3348108,0.405513514 11.7996757,0.824972973 11.8558919,1.37686486 L12.0596757,3.37848649 L12.0612973,3.37740541 C12.5775135,3.52659459 13.0780541,3.7292973 13.5521081,3.99686486 L15.1115676,2.72551351 C15.5412973,2.37524324 16.1667027,2.40659459 16.5591351,2.79902703 L17.471027,3.71145946 C17.8634595,4.10335135 17.8953514,4.72875676 17.5445405,5.15902703 L16.2737297,6.71794595 L16.2758919,6.71902703 C16.5353514,7.1892973 16.7461622,7.68659459 16.8921081,8.21091892 L18.8931892,8.4147027 C19.4450811,8.47091892 19.8650811,8.93524324 19.8650811,9.48983784 L19.8650811,10.7801081 C19.8650811,11.3347027 19.4450811,11.7995676 18.8931892,11.8557838 L16.8921081,12.0595676 L16.8926486,12.0617297 C16.744,12.5774054 16.5412973,13.0779459 16.2737297,13.552 L17.5445405,15.1114595 C17.8953514,15.5411892 17.8634595,16.1665946 17.471027,16.559027 L16.5591351,17.4709189 C16.1667027,17.8633514 15.5412973,17.8952432 15.1115676,17.5444324 L13.5521081,16.2736216 L13.5515676,16.2757838 C13.0812973,16.5352432 12.584,16.7460541 12.0596757,16.892 L11.8558919,18.8930811 C11.7996757,19.444973 11.3348108,19.864973 10.7802162,19.864973 L9.48994595,19.864973 C8.93535135,19.864973 8.47102703,19.444973 8.41481081,18.8930811 L8.21102703,16.892 L8.20886486,16.8925405 C7.69264865,16.7438919 7.19210811,16.5411892 6.71805405,16.2736216 L5.15859459,17.5444324 C4.72886486,17.8952432 4.10345946,17.8633514 3.71156757,17.4709189 L2.79913514,16.559027 C2.4067027,16.1665946 2.37535135,15.5411892 2.72562162,15.1114595 L3.99697297,13.552 L3.99481081,13.5514595 C3.73535135,13.0811892 3.52454054,12.5838919 3.37859459,12.0595676 L1.37697297,11.8557838 C0.825081081,11.7995676 0.405621622,11.3347027 0.405621622,10.7801081 L0.405621622,9.48983784 C0.405621622,8.93524324 0.825081081,8.47091892 1.37697297,8.4147027 L3.37859459,8.21091892 L3.37751351,8.20875676 L3.37751351,8.20875676 Z" id="Stroke-1"></path>
                <path d="M13.3783784,10.1351351 C13.3783784,8.34378378 11.9264865,6.89189189 10.1351351,6.89189189 C8.34378378,6.89189189 6.89189189,8.34378378 6.89189189,10.1351351 C6.89189189,11.9264865 8.34378378,13.3783784 10.1351351,13.3783784 C11.9264865,13.3783784 13.3783784,11.9264865 13.3783784,10.1351351 L13.3783784,10.1351351 Z" id="Stroke-3"></path>
            </g>
        </g>
    </g>
</svg>