<?xml version="1.0" encoding="UTF-8" standalone="no"?>
<svg width="32px" height="32px" viewBox="0 0 32 32" version="1.1" xmlns="http://www.w3.org/2000/svg" xmlns:xlink="http://www.w3.org/1999/xlink">
    <!-- Generator: Sketch 48.2 (47327) - http://www.bohemiancoding.com/sketch -->
    <title>btn_profile_post</title>
    <desc>Created with Sketch.</desc>
    <defs></defs>
    <g id="ICON" stroke="none" stroke-width="1" fill="none" fill-rule="evenodd" transform="translate(-384.000000, -8.000000)">
        <g id="btn_profile_post" transform="translate(384.000000, 8.000000)" stroke="#FFFFFF">
            <g id="Group" transform="translate(3.000000, 9.000000)">
                <path d="M25.137931,13 L13.0344828,13 C12.0061552,13 11.1724138,12.1684643 11.1724138,11.1428571 L11.1724138,1.85714286 C11.1724138,0.831535714 12.0061552,0 13.0344828,0 L25.137931,0 C26.1662586,0 27,0.831535714 27,1.85714286 L27,11.1428571 C27,12.1684643 26.1662586,13 25.137931,13 L25.137931,13 Z" id="Stroke-51"></path>
                <polyline id="Stroke-53" points="11.1724138 1.85714286 19.0862069 6.5 27 1.85714286"></polyline>
                <path d="M0,2 L8.37931034,2" id="Line" stroke-linecap="round" stroke-linejoin="round"></path>
                <path d="M2.79310345,6 L8.37931034,6" id="Line" stroke-linecap="round" stroke-linejoin="round"></path>
                <path d="M5.5862069,9.5 L8.37931034,9.5" id="Line" stroke-linecap="round" stroke-linejoin="round"></path>
            </g>
        </g>
    </g>
</svg>