<?xml version="1.0" encoding="UTF-8" standalone="no"?>
<svg width="32px" height="32px" viewBox="0 0 32 32" version="1.1" xmlns="http://www.w3.org/2000/svg" xmlns:xlink="http://www.w3.org/1999/xlink">
    <!-- Generator: Sketch 48.2 (47327) - http://www.bohemiancoding.com/sketch -->
    <title>btn_tab_shop</title>
    <desc>Created with Sketch.</desc>
    <defs></defs>
    <g id="ICON" stroke="none" stroke-width="1" fill="none" fill-rule="evenodd" transform="translate(-144.000000, -88.000000)">
        <g id="btn_tab_shop" transform="translate(144.000000, 88.000000)" stroke="#FFFFFF" stroke-width="0.75">
            <g id="Group-15" transform="translate(5.000000, 2.000000)">
                <path d="M20.275068,26.641077 L1.875148,26.641077 C0.901868,26.641077 0.138468,25.8005361 0.226908,24.8249951 L1.852708,6.86025738 C1.930588,6.00289672 2.645148,5.34648689 3.500948,5.34648689 L18.649268,5.34648689 C19.505068,5.34648689 20.220068,6.00289672 20.297508,6.86025738 L21.923748,24.8249951 C22.011748,25.8005361 21.248348,26.641077 20.275068,26.641077 Z" id="Stroke-1"></path>
                <path d="M6.553404,7.9882377 L6.553404,4.76992623 C6.553404,2.26822131 8.588404,0.221532787 11.075284,0.221532787 C13.562164,0.221532787 15.597164,2.26822131 15.597164,4.76992623 L15.597164,7.9882377" id="Stroke-3"></path>
                <polygon id="Stroke-5" points="13.996268 11.6724984 8.154388 11.6724984 5.196708 15.811023 11.075108 21.3176951 16.953948 15.811023"></polygon>
                <path d="M5.196664,15.8110672 L16.696664,15.8110672" id="Stroke-7"></path>
                <polyline id="Stroke-9" stroke-linecap="round" stroke-linejoin="round" points="13.996268 11.6724984 11.075108 21.3176951 8.154388 11.6724984"></polyline>
            </g>
        </g>
    </g>
</svg>