<?xml version="1.0" encoding="UTF-8" standalone="no"?>
<svg width="16px" height="16px" viewBox="0 0 16 16" version="1.1" xmlns="http://www.w3.org/2000/svg" xmlns:xlink="http://www.w3.org/1999/xlink">
    <!-- Generator: Sketch 48.2 (47327) - http://www.bohemiancoding.com/sketch -->
    <title>ic_inbox_heart</title>
    <desc>Created with Sketch.</desc>
    <defs></defs>
    <g id="ICON" stroke="none" stroke-width="1" fill="none" fill-rule="evenodd" transform="translate(-131.000000, -267.000000)">
        <g id="ic_inbox_heart" transform="translate(131.000000, 267.000000)" fill="#F01E64">
            <path d="M10.8,3 C9.5946,3 8.5458,3.64173077 8,4.58865385 C7.4546,3.64173077 6.4056,3 5.2,3 C3.4328,3 2,4.37769231 2,6.07692308 C2,6.76096154 2.235,7.39057692 2.6276,7.90153846 L2.6684,7.95384615 C2.7118,8.00788462 8,13 8,13 C8,13 13.2884,8.00769231 13.3324,7.95307692 L13.3724,7.90153846 C13.765,7.39057692 14,6.76096154 14,6.07692308 C14,4.37769231 12.5674,3 10.8,3 Z" id="Fill-56"></path>
        </g>
    </g>
</svg>