<?xml version="1.0" encoding="UTF-8" standalone="no"?>
<svg width="16px" height="16px" viewBox="0 0 16 16" version="1.1" xmlns="http://www.w3.org/2000/svg" xmlns:xlink="http://www.w3.org/1999/xlink">
    <!-- Generator: Sketch 48.2 (47327) - http://www.bohemiancoding.com/sketch -->
    <title>ic_inbox_photo</title>
    <desc>Created with Sketch.</desc>
    <defs></defs>
    <g id="ICON" stroke="none" stroke-width="1" fill="none" fill-rule="evenodd" transform="translate(-103.000000, -267.000000)">
        <g id="ic_inbox_photo" transform="translate(103.000000, 267.000000)" fill="#FFFFFF">
            <path d="M8.95784091,1 C10.0184091,1 10.8863636,1.86795455 10.8863636,2.92852273 L10.8863636,3.04545455 L11.8252273,3.04545455 C13.37125,3.04545455 14.6363636,4.31056818 14.6363636,5.85659091 L14.6363636,11.8252273 C14.6363636,13.37125 13.37125,14.6363636 11.8252273,14.6363636 L3.81113636,14.6363636 C2.26511364,14.6363636 1,13.37125 1,11.8252273 L1,5.85659091 C1,4.31056818 2.26511364,3.04545455 3.81113636,3.04545455 L4.75,3.04545455 L4.75,2.92852273 C4.75,1.86795455 5.61761364,1 6.67852273,1 L8.95784091,1 Z M7.81818182,5.43181818 C5.93534091,5.43181818 4.40909091,6.95806818 4.40909091,8.84090909 C4.40909091,10.72375 5.93534091,12.25 7.81818182,12.25 C9.70102273,12.25 11.2272727,10.72375 11.2272727,8.84090909 C11.2272727,6.95806818 9.70102273,5.43181818 7.81818182,5.43181818 Z" id="Combined-Shape"></path>
        </g>
    </g>
</svg>