<?xml version="1.0" encoding="UTF-8" standalone="no"?>
<svg width="16px" height="16px" viewBox="0 0 16 16" version="1.1" xmlns="http://www.w3.org/2000/svg" xmlns:xlink="http://www.w3.org/1999/xlink">
    <!-- Generator: Sketch 48.2 (47327) - http://www.bohemiancoding.com/sketch -->
    <title>ic_MSG detail_HD_xs</title>
    <desc>Created with Sketch.</desc>
    <defs></defs>
    <g id="ICON" stroke="none" stroke-width="1" fill="none" fill-rule="evenodd" transform="translate(-160.000000, -267.000000)" opacity="0.3">
        <g id="ic_MSG-detail_HD_xs" transform="translate(160.000000, 267.000000)" fill="#FFFFFF">
            <g id="Group-9" transform="translate(1.500000, 5.000000)">
                <polygon id="Fill-1" points="4.89862883 0 4.57420918 2.02158333 2.35193878 2.02158333 2.69260842 0 0.98942602 0 0 5.83675 1.70309949 5.83675 2.10868622 3.45641667 4.33087372 3.45641667 3.92528699 5.83675 5.6123023 5.83675 6.60172832 0"></polygon>
                <path d="M7.44001276,0 L7.2129273,1.35325 L10.4083737,1.35325 C10.9923788,1.35325 11.2356314,1.51625 11.1058801,2.26625 L10.9112117,3.489 C10.7976276,4.10858333 10.5057079,4.48358333 9.87311862,4.48358333 L8.39702168,4.48358333 L8.80260842,2.02166667 L7.09942602,2.02166667 L6.46683673,5.83675 L9.92178571,5.83675 C11.6898023,5.83675 12.3873087,5.08683333 12.6468112,3.489 L12.8576467,2.26625 C13.1333992,0.619583333 12.4521429,0 10.6841263,0 L7.44001276,0 Z" id="Fill-2"></path>
            </g>
        </g>
    </g>
</svg>