<?xml version="1.0" encoding="UTF-8" standalone="no"?>
<svg width="150px" height="65px" viewBox="0 0 150 65" version="1.1" xmlns="http://www.w3.org/2000/svg" xmlns:xlink="http://www.w3.org/1999/xlink">
    <!-- Generator: Sketch 48.2 (47327) - http://www.bohemiancoding.com/sketch -->
    <title>img_login_swag_lg</title>
    <desc>Created with Sketch.</desc>
    <defs></defs>
    <g id="ICON" stroke="none" stroke-width="1" fill="none" fill-rule="evenodd" transform="translate(-332.000000, -346.000000)">
        <g id="swag_icon" transform="translate(332.000000, 346.000000)" fill="#00E6D2">
            <g>
                <g transform="translate(1.000000, 0.500000)">
                    <path d="M85.5748428,26.0857059 C85.8251599,24.1957059 86.0128977,22.6732059 86.136318,21.5182059 C86.2632149,20.3632059 86.3553455,19.4392059 86.4179248,18.7462059 C86.480504,18.0532059 86.5222236,17.5387059 86.5448216,17.2027059 C86.5639431,16.8667059 86.574373,16.5727059 86.574373,16.3207059 C87.7425195,17.7487059 88.660349,19.3342059 89.3278613,21.0772059 C89.9953737,22.8202059 90.6837458,24.4897059 91.3947159,26.0857059 L85.5748428,26.0857059 Z M137.639066,21.3922059 C137.30531,20.6152059 136.889853,19.9327059 136.387481,19.3447059 C135.886847,18.7567059 135.344493,18.2947059 134.760419,17.9587059 C134.176346,17.6227059 133.613133,17.5387059 133.070779,17.7067059 C129.149144,18.2527059 125.477826,19.0507059 122.056825,20.1007059 C118.635825,21.1507059 115.256544,22.4527059 111.918982,24.0067059 C111.25147,24.3427059 110.834274,24.8362059 110.669135,25.4872059 C110.500518,26.1382059 110.510948,26.8417059 110.698686,27.5977059 C110.888162,28.3537059 111.20975,29.0992059 111.668665,29.8342059 C112.127579,30.5692059 112.649073,31.2097059 113.233147,31.7557059 C113.81722,32.3017059 114.443013,32.7007059 115.110525,32.9527059 C115.778038,33.2047059 116.382971,33.2047059 116.925324,32.9527059 C117.759715,32.3647059 118.583675,31.9237059 119.397206,31.6297059 C120.210737,31.3357059 121.032959,31.0627059 121.869088,30.8107059 C120.74266,32.3647059 119.303337,33.6982059 117.552855,34.8112059 C115.798897,35.9242059 113.923257,36.6697059 111.918982,37.0477059 C109.916445,37.0477059 108.445832,36.5857059 107.507143,35.6617059 C106.568453,34.7377059 106.00524,33.5407059 105.81924,32.0707059 C105.629764,30.6007059 105.734063,28.9732059 106.130398,27.1882059 C106.526734,25.4032059 107.079517,23.6287059 107.788749,21.8647059 C108.497981,20.1007059 109.280222,18.4732059 110.135472,16.9822059 C110.990723,15.4912059 111.771225,14.3257059 112.482195,13.4857059 C113.316586,12.4777059 114.192696,11.6692059 115.110525,11.0602059 C116.028355,10.4512059 117.175641,9.89470588 118.552386,9.39070588 C119.136459,9.09670588 119.730962,8.92870588 120.335895,8.88670588 C120.940828,8.84470588 121.66049,8.82370588 122.49488,8.82370588 C123.037234,8.78170588 123.560466,9.01270588 124.059362,9.51670588 C124.559997,10.0207059 125.091921,10.5562059 125.656872,11.1232059 C126.218348,11.6902059 126.823281,12.1522059 127.471672,12.5092059 C128.116586,12.8662059 128.877967,12.8557059 129.754077,12.4777059 C130.129553,12.2257059 130.36944,11.8372059 130.473739,11.3122059 C130.578038,10.7872059 130.578038,10.2307059 130.473739,9.64270588 C130.36944,9.05470588 130.192132,8.48770588 129.941815,7.94170588 C129.691498,7.39570588 129.420321,6.99670588 129.128284,6.74470588 C127.876699,4.64470588 126.353936,3.05920588 124.559997,1.98820588 C122.766057,0.917205882 120.857389,0.318705882 118.833992,0.192705882 C116.810596,0.0667058824 114.766339,0.392205882 112.701223,1.16920588 C110.636107,1.94620588 108.706579,3.11170588 106.912639,4.66570588 C105.452456,6.00970588 104.159151,7.80520588 103.032724,10.0522059 C101.908035,12.2992059 100.976299,14.6932059 100.247946,17.2342059 C99.5178543,19.7752059 98.9963603,22.2952059 98.6834639,24.7942059 C98.500941,26.2502059 98.4192402,27.5837059 98.412287,28.8192059 C97.7030551,27.1584559 97.0459727,25.4644559 96.4636377,23.7232059 C95.7961254,21.7282059 95.1494728,19.7122059 94.5219417,17.6752059 C93.8978872,15.6382059 93.1990852,13.6537059 92.4255358,11.7217059 C91.6537246,9.78970588 90.7567549,7.96270588 89.736365,6.24070588 C88.7142367,4.51870588 87.473081,2.94370588 86.0128977,1.51570588 C85.3871049,1.17970588 84.5614061,1.05370588 83.5410161,1.13770588 C82.5171496,1.22170588 81.6949273,1.55770588 81.0673962,2.14570588 C80.1912863,3.82570588 79.6611007,5.66320588 79.4716246,7.65820588 C79.285625,9.65320588 79.1900178,11.6902059 79.1900178,13.7692059 C79.1900178,15.8482059 79.1500366,17.9062059 79.0665975,19.9432059 C78.9814202,21.9802059 78.6059445,23.8807059 77.9384322,25.6447059 C76.8137434,25.3507059 75.7064378,25.0462059 74.6217303,24.7312059 C74.5556744,24.7119559 74.4913568,24.6839559 74.4253009,24.6629559 C74.4687587,24.4302059 74.5191698,24.1747059 74.5608893,23.9437059 C75.1449626,20.9197059 75.3744199,17.9692059 75.2492614,15.0922059 C75.1223645,12.2152059 74.8929071,9.26470588 74.5608893,6.24070588 C74.3105722,5.14870588 73.799508,3.99370588 73.0276969,2.77570588 C72.2558858,1.55770588 71.3276264,0.654705882 70.2429189,0.0667058824 C69.5319487,-0.0592941176 68.9913333,-0.00679411765 68.6158576,0.224205882 C68.2386436,0.455205882 67.9587751,0.780705882 67.7710373,1.20070588 C67.5815611,1.62070588 67.4790006,2.09320588 67.4581409,2.61820588 C67.4355428,3.14320588 67.4268512,3.61570588 67.4268512,4.03570588 C68.0109245,7.35370588 68.1552045,10.7662059 67.8649062,14.2732059 C67.6284956,17.1134559 67.1174315,19.8907059 66.3612651,22.6067059 C66.2135085,22.7064559 66.0640136,22.7939559 65.9232102,22.9357059 C64.9653995,23.6077059 64.5273445,24.4582059 64.6090453,25.4872059 C64.6716246,26.2274559 64.9132501,26.9537059 65.2435297,27.6729559 C65.0627451,28.2732059 64.8854371,28.8752059 64.6733629,29.4877059 C64.3813262,30.0757059 64.0562616,30.8212059 63.703384,31.7242059 C63.3487681,32.6272059 62.7542649,33.3727059 61.9198745,33.9607059 C61.9198745,34.0867059 61.8364355,34.1602059 61.6695574,34.1812059 C61.500941,34.2022059 61.3027732,34.1812059 61.0750542,34.1182059 C60.8438585,34.0552059 60.6456908,33.9502059 60.4788127,33.8032059 C60.3136729,33.6562059 60.2302339,33.5197059 60.2302339,33.3937059 C59.9781785,33.0997059 59.8321601,32.7007059 59.7921789,32.1967059 C59.7504594,31.6927059 59.7295997,31.1677059 59.7295997,30.6217059 C59.9781785,29.7817059 59.9051693,28.8577059 59.5105722,27.8497059 C59.1124984,26.8417059 58.6448921,25.9177059 58.1008,25.0777059 C57.9356603,24.7837059 57.6331937,24.4582059 57.1951388,24.1012059 C56.7570838,23.7442059 56.2860009,23.4397059 55.7871049,23.1877059 C55.2864707,22.9357059 54.7858364,22.8097059 54.2852022,22.8097059 C53.7845679,22.8097059 53.3864942,23.0197059 53.0944575,23.4397059 C52.2600671,25.0777059 51.4361066,26.7157059 50.6243142,28.3537059 C49.8107836,29.9917059 48.9850847,31.4827059 48.1524326,32.8267059 C47.860396,32.2387059 47.6917796,31.5667059 47.6517984,30.8107059 C47.6083406,30.0547059 47.5874808,29.2567059 47.5874808,28.4167059 C47.2954441,25.8967059 47.1511641,23.4922059 47.1511641,21.2032059 C47.1511641,18.9142059 47.2954441,16.5097059 47.5874808,13.9897059 C47.6709198,13.3597059 47.5683593,12.6667059 47.2763227,11.9107059 C46.9842861,11.1547059 46.5879506,10.4407059 46.0873164,9.76870588 C45.5866821,9.09670588 45.0338985,8.51920588 44.4289654,8.03620588 C43.822294,7.55320588 43.2399591,7.24870588 42.6767455,7.12270588 C42.113532,6.99670588 41.6233276,7.11220588 41.2061324,7.46920588 C40.7889372,7.82620588 40.5386201,8.50870588 40.455181,9.51670588 C40.1631444,12.8767059 40.0379858,16.2157059 40.0797054,19.5337059 C40.0918736,20.4839559 40.1700977,21.4342059 40.2239854,22.3862059 C39.1392778,21.5742059 37.9832994,20.8374559 36.6691345,20.2582059 C34.8126159,19.4392059 32.8726581,18.7777059 30.8509997,18.2737059 C28.8258646,17.7697059 26.9797758,17.2447059 25.310995,16.6987059 C24.4348851,16.3627059 23.7047935,16.0477059 23.1207202,15.7537059 C22.5349086,15.4597059 21.9734333,15.0187059 21.4328179,14.4307059 C21.6813967,14.4307059 21.9317138,14.3467059 22.1820309,14.1787059 C22.3071895,14.0947059 22.4114883,13.9897059 22.4949273,13.8637059 C24.2054277,12.7297059 26.0011054,11.7847059 27.8784838,11.0287059 C29.754124,10.2727059 31.6940817,9.89470588 33.6966187,9.89470588 C34.4475701,9.81070588 34.9690641,9.50620588 35.2611007,8.98120588 C35.5531374,8.45620588 35.6887258,7.82620588 35.667866,7.09120588 C35.645268,6.35620588 35.4801282,5.56870588 35.1672318,4.72870588 C34.8543354,3.88870588 34.4475701,3.13270588 33.9469358,2.46070588 C33.4463016,1.78870588 32.883088,1.24270588 32.2572952,0.822705882 C31.6315024,0.402705882 30.9848498,0.234705882 30.3173375,0.318705882 C28.0644834,0.318705882 25.8533488,0.696705882 23.6839337,1.45270588 C21.5127803,2.20870588 19.4285426,3.17470588 17.4260056,4.35070588 C16.341298,5.06470588 15.4860479,5.89420588 14.860255,6.83920588 C14.2344622,7.78420588 13.8363885,8.79220588 13.6712487,9.86320588 C13.5043706,10.9342059 13.5460901,12.0577059 13.7964073,13.2337059 C14.0484627,14.4097059 14.5264989,15.5647059 15.2357307,16.6987059 C16.6541944,18.9247059 18.3229753,20.6992059 20.2420732,22.0222059 C22.1611712,23.3452059 24.2262875,24.5527059 26.4374221,25.6447059 C27.5221296,26.2327059 28.6276969,26.6842059 29.754124,26.9992059 C30.880551,27.3142059 31.9861183,27.6187059 33.0708259,27.9127059 C33.404582,27.9127059 33.7070486,28.0072059 33.9782254,28.1962059 C34.2494023,28.3852059 34.5310091,28.4797059 34.8230457,28.4797059 C34.2389725,28.7737059 33.7800577,29.0572059 33.4463016,29.3302059 C33.1108071,29.6032059 32.8413685,29.9077059 32.6327709,30.2437059 C31.756661,30.7897059 30.880551,31.3042059 30.0044411,31.7872059 C29.1283312,32.2702059 28.1044646,32.6797059 26.9397946,33.0157059 C25.8533488,33.5617059 24.7686412,33.9712059 23.6839337,34.2442059 C22.5974878,34.5172059 21.6396772,34.6537059 20.8052868,34.6537059 L17.4260056,34.6537059 C17.3025853,34.6537059 17.0922494,34.6222059 16.8019511,34.5592059 C16.5081761,34.4962059 16.2161395,34.4332059 15.9241028,34.3702059 C15.6320662,34.3072059 15.4130387,34.2442059 15.2670204,34.1812059 C15.121002,34.1182059 15.1105722,34.0867059 15.2357307,34.0867059 C14.9436941,33.8347059 14.5682184,33.5197059 14.1093037,33.1417059 C13.6503889,32.7637059 13.1810443,32.4697059 12.7012698,32.2597059 C12.2232337,32.0497059 11.7521507,31.9762059 11.2949743,32.0392059 C10.8343213,32.1022059 10.4588456,32.4277059 10.166809,33.0157059 C9.75135206,33.5617059 9.52015638,34.1392059 9.48017518,34.7482059 C9.43671734,35.3572059 9.5097265,35.9662059 9.69920266,36.5752059 C9.88520219,37.1842059 10.1268277,37.7617059 10.4171261,38.3077059 C10.710901,38.8537059 11.0029377,39.3367059 11.2949743,39.7567059 C12.4196631,41.1427059 13.7546877,42.2032059 15.29831,42.9382059 C16.8419323,43.6732059 18.4898534,44.1457059 20.2420732,44.3557059 C21.9942931,44.5657059 23.7882325,44.5552059 25.6238914,44.3242059 C27.4595503,44.0932059 29.2117702,43.6837059 30.880551,43.0957059 C32.2572952,42.6757059 33.8113474,42.0142059 35.5427075,41.1112059 C37.2740676,40.2082059 38.8594094,39.1267059 40.2987328,37.8667059 C40.9853666,37.2647059 41.5955146,36.6259559 42.1396067,35.9539559 C42.3482043,36.7082059 42.5776617,37.4519559 42.8331937,38.1817059 C43.7927427,40.9117059 45.3763462,43.3897059 47.5874808,45.6157059 C47.8795174,45.7417059 48.2254418,45.9184559 48.6217772,46.1512059 C49.0181127,46.3822059 49.4022799,46.5607059 49.7794939,46.6867059 C50.1549696,46.8127059 50.4991557,46.8547059 50.8120521,46.8127059 C51.1249485,46.7707059 51.343976,46.5397059 51.4691345,46.1197059 C52.3017866,44.7337059 53.1048874,43.3582059 53.8784369,41.9932059 C54.650248,40.6282059 55.3281902,39.2527059 55.9122635,37.8667059 L56.9761113,38.9377059 C57.6436236,39.9037059 58.5284251,40.7962059 59.6357307,41.6152059 C60.741298,42.4342059 61.8764167,43.0012059 63.0463016,43.3162059 C64.2127098,43.6312059 65.3391369,43.6102059 66.4238444,43.2532059 C67.508552,42.8962059 68.4055217,42.0247059 69.1164918,40.6387059 C69.9508822,39.5047059 70.6496842,38.2657059 71.2111594,36.9217059 C71.6926722,35.7754559 72.1081291,34.5732059 72.4836048,33.3342059 C72.9129682,33.3709559 73.338855,33.4094559 73.7786483,33.4252059 C74.3835813,33.4462059 74.9867761,33.5092059 75.5934474,33.6142059 C76.1966422,33.7192059 76.8137434,33.9607059 77.4377979,34.3387059 C77.521237,35.2207059 77.4482278,36.4072059 77.2187704,37.8982059 C76.9910514,39.3892059 76.7389959,41.0167059 76.4695574,42.7807059 C76.1966422,44.5447059 75.9776147,46.3402059 75.8124749,48.1672059 C75.6438585,49.9942059 75.6647183,51.6847059 75.8750542,53.2387059 C76.0819135,54.7909559 76.5425665,56.1367059 77.2517984,57.2707059 C77.9592919,58.4047059 79.0665975,59.1397059 80.566762,59.4757059 C81.2342743,59.7697059 81.7575066,59.8432059 82.1329823,59.6962059 C82.5067197,59.5492059 82.7796349,59.2867059 82.9447747,58.9087059 C83.1116527,58.5307059 83.20726,58.0897059 83.2263814,57.5857059 C83.2472412,57.0817059 83.2594094,56.6407059 83.2594094,56.2627059 C83.0490735,54.4567059 82.9986624,52.6822059 83.1012229,50.9392059 C83.20726,49.1962059 83.3723997,47.4742059 83.6018571,45.7732059 C83.8313145,44.0722059 84.07294,42.3817059 84.3215188,40.7017059 C84.5735743,39.0217059 84.7595738,37.2997059 84.8864707,35.5357059 C86.513532,35.5357059 88.2657519,35.6197059 90.1431303,35.7877059 C92.0205087,35.9557059 93.9187469,36.0397059 95.8361066,36.0397059 C96.088162,36.4597059 96.3784604,36.8902059 96.7122165,37.3312059 C97.047711,37.7722059 97.4214484,38.1817059 97.8403819,38.5597059 C98.2558388,38.9377059 98.706062,39.2422059 99.1858364,39.4732059 C99.6638726,39.7042059 100.174937,39.8197059 100.719029,39.8197059 C101.125794,39.6937059 101.416092,39.4732059 101.647288,39.2037059 C102.585977,40.5354559 103.681115,41.7097059 104.94313,42.7177059 C106.672752,44.1037059 108.654429,45.0697059 110.888162,45.6157059 C113.118418,46.1617059 115.486001,46.1197059 117.989172,45.4897059 C119.783112,44.9437059 121.587481,44.0617059 123.40228,42.8437059 C125.217079,41.6257059 126.729412,40.2082059 127.939278,38.5912059 C129.149144,36.9742059 129.931385,35.2627059 130.286001,33.4567059 C130.640617,31.6507059 130.254711,29.9077059 129.128284,28.2277059 C130.212992,27.9337059 131.412428,27.6607059 132.726593,27.4087059 C134.040758,27.1567059 135.261054,26.9047059 136.387481,26.6527059 C137.138432,26.4847059 137.649496,26.1172059 137.920673,25.5502059 C138.19185,24.9832059 138.296149,24.3427059 138.23357,23.6287059 C138.17099,22.9147059 137.972823,22.1692059 137.639066,21.3922059 L137.639066,21.3922059 Z" id="Fill-1"></path>
                    <path d="M147.596583,57.5814134 C146.157259,55.8349134 144.057377,54.3491634 141.298673,53.1259134 C138.53997,51.9044134 135.299754,50.9226634 131.581502,50.1859134 C127.861511,49.4474134 123.745185,48.9049134 119.232524,48.5549134 C114.718124,48.2049134 109.979481,48.0211634 105.014859,48.0019134 C100.051974,47.9826634 94.9535007,48.1086634 89.7194392,48.3799134 C88.6399466,48.4359134 87.5726222,48.5094134 86.4983445,48.5724134 C86.4166438,49.4351634 86.3071301,50.2874134 86.2584573,51.1606634 C86.1593734,52.9036634 86.2080462,54.6781634 86.4079522,56.4841634 C86.4079522,56.8446634 86.3975224,57.2699134 86.3784009,57.7441634 C91.7045931,57.5586634 97.0029722,57.4449134 102.2718,57.4081634 C107.684908,57.3679134 112.932876,57.4256634 118.017442,57.5814134 C123.100271,57.7371634 127.967548,57.9979134 132.615798,58.3671634 C137.265786,58.7364134 141.554205,59.2316634 145.481055,59.8529134 C146.051222,59.9299134 146.524043,59.9106634 146.899519,59.7951634 C147.273256,59.6779134 147.551387,59.5029134 147.732171,59.2701634 C147.911217,59.0374134 147.992918,58.7661634 147.979012,58.4546634 C147.963367,58.1449134 147.83647,57.8526634 147.596583,57.5814134" id="Fill-4"></path>
                    <path d="M73.0129704,53.41525 C72.8356624,52.05375 72.8252325,50.56975 72.9260547,49 C71.2120777,49.1225 69.4963624,49.2415 67.7928153,49.38325 C62.626548,49.81025 57.5802243,50.31425 52.6538442,50.897 C47.7292025,51.47975 43.1209337,52.0905 38.8307763,52.731 C34.540619,53.3715 30.6502736,54.00325 27.1597404,54.6245 C23.6692072,55.244 20.7471024,55.82675 18.3899495,56.371 C16.3352631,56.8365 14.310128,57.3125 12.3162826,57.79725 C10.3224371,58.28375 8.37378786,58.8175 6.47033472,59.3985 C6.01663493,59.51575 5.43429996,59.6715 4.7250681,59.86575 C4.01583625,60.06 3.3205109,60.263 2.63909206,60.4765 C1.95941154,60.69 1.36317005,60.93325 0.850367609,61.2045 C0.335826852,61.47575 0.0629116536,61.768 0.0333603264,62.07775 C-0.0865832959,62.622 0.116799368,63 0.645246631,63.2135 C1.17369389,63.427 1.83077635,63.53375 2.61649399,63.53375 C3.40394994,63.53375 4.21052735,63.48475 5.04144113,63.3885 C5.87235492,63.29225 6.5450822,63.20475 7.05788464,63.126 C9.11430935,62.93175 11.1689958,62.72875 13.2236821,62.51525 C15.2783685,62.30175 17.3330549,62.07775 19.386003,61.845 C23.4049835,61.4565 27.7716267,61.05925 32.4859326,60.6515 C37.1985001,60.24375 42.1318334,59.85525 47.2841942,59.486 C52.4365551,59.11675 57.7384108,58.779 63.1932382,58.4675 C67.0105743,58.2505 70.8609384,58.09825 74.7060876,57.93725 C74.5791907,57.778 74.4453406,57.62575 74.3375652,57.44725 C73.654408,56.31325 73.2128764,54.9675 73.0129704,53.41525" id="Fill-6"></path>
                </g>
            </g>
        </g>
    </g>
</svg>