<?xml version="1.0" encoding="UTF-8" standalone="no"?>
<svg width="68px" height="32px" viewBox="0 0 68 32" version="1.1" xmlns="http://www.w3.org/2000/svg" xmlns:xlink="http://www.w3.org/1999/xlink">
    <!-- Generator: Sketch 48.2 (47327) - http://www.bohemiancoding.com/sketch -->
    <title>img_logo</title>
    <desc>Created with Sketch.</desc>
    <defs></defs>
    <g id="ICON" stroke="none" stroke-width="1" fill="none" fill-rule="evenodd" transform="translate(-234.000000, -346.000000)">
        <g id="img_logo" transform="translate(234.000000, 346.000000)" fill="#FEFEFE">
            <path d="M38.7308466,13.9110448 C38.831863,13.119887 38.9071972,12.4835979 38.9577054,12.0004075 C39.0082136,11.5172172 39.0458808,11.1304879 39.0707068,10.8411047 C39.0963889,10.5508365 39.1126543,10.3357902 39.1220711,10.195081 C39.1297757,10.0552566 39.1340561,9.93136168 39.1340561,9.82605096 C39.6057512,10.4234017 39.97643,11.0871247 40.2460923,11.8154501 C40.5157547,12.5455454 40.7931217,13.243782 41.0807616,13.9110448 L38.7308466,13.9110448 Z M59.7533829,11.9473097 C59.6181237,11.6225279 59.4503338,11.3375695 59.247445,11.0906645 C59.0454122,10.8455295 58.8271141,10.6517224 58.5908385,10.5118981 C58.3545629,10.3711888 58.126848,10.3357902 57.9076938,10.4065874 C56.3248185,10.6340231 54.8421034,10.9685395 53.4612609,11.4074817 C52.0804183,11.8464238 50.714985,12.3915616 49.3675292,13.0411252 C49.0978668,13.1818345 48.9300769,13.3880311 48.8633034,13.6606 C48.7948177,13.932284 48.799098,14.226977 48.8752883,14.5429091 C48.9514787,14.8597263 49.0816015,15.1712336 49.2673689,15.4783161 C49.4514241,15.7862836 49.6628737,16.0544277 49.8982932,16.2827484 C50.1337128,16.5110691 50.3871098,16.6774423 50.6567722,16.783638 C50.9255785,16.8889487 51.1704148,16.8889487 51.3887129,16.783638 C51.7260049,16.537618 52.0581604,16.3526606 52.3868917,16.2296506 C52.715623,16.1066406 53.0477786,15.9924802 53.3850705,15.8871695 C52.9304968,16.537618 52.3492246,17.0951454 51.642966,17.5606364 C50.9341392,18.0261275 50.1773724,18.3376348 49.3675292,18.4960434 C48.5585421,18.4960434 47.9652848,18.3022363 47.5869014,17.916392 C47.2068059,17.5296627 46.9799471,17.0287731 46.9046128,16.414608 C46.8284225,15.799558 46.87037,15.1190207 47.0304553,14.3721111 C47.1905406,13.6252015 47.4139751,12.8827167 47.7007589,12.1455416 C47.9866866,11.4074817 48.3025768,10.7269443 48.6475735,10.1030447 C48.9925701,9.47914507 49.3076042,8.9915299 49.5952441,8.64019919 C49.9325361,8.21895632 50.2860934,7.88090007 50.6567722,7.62603043 C51.0265948,7.37116079 51.4897293,7.13841526 52.0461754,6.92779382 C52.281595,6.80478383 52.5221509,6.73487167 52.7669873,6.71717239 C53.0109675,6.69947311 53.3020317,6.69062347 53.6384676,6.69062347 C53.8567657,6.67292419 54.0682152,6.76938527 54.2693919,6.9800067 C54.4722808,7.1915131 54.6871546,7.41540899 54.9148695,7.65257935 C55.1417283,7.88974971 55.3857085,8.08267186 55.6476663,8.23223078 C55.9079119,8.38090473 56.2152414,8.37736488 56.5696548,8.21895632 C56.7211794,8.1136456 56.8179154,7.95081222 56.8598629,7.73134115 C56.9026664,7.51187007 56.9026664,7.27912454 56.8598629,7.03310454 C56.8179154,6.78708455 56.7460054,6.54991419 56.644989,6.32159348 C56.5439727,6.09327276 56.4343956,5.92689953 56.3162578,5.82070384 C55.8111758,4.94281954 55.1956608,4.27909654 54.4722808,3.83130475 C53.7471886,3.38351296 52.9775807,3.13306814 52.1600329,3.08085526 C51.3424851,3.02775742 50.5180887,3.16404188 49.6834194,3.48882367 C48.8496062,3.81360546 48.0705816,4.30122064 47.3454894,4.95078422 C46.7565125,5.51362133 46.2351653,6.26407081 45.7797355,7.2039026 C45.3251618,8.14373438 44.9493466,9.14551364 44.6557142,10.2083554 C44.3603697,11.2711972 44.1497762,12.3251893 44.0239338,13.3703318 C43.9503117,13.980072 43.9169249,14.5375994 43.9143567,15.0544183 C43.6275729,14.3597216 43.3621909,13.6508654 43.1276274,12.92254 C42.857109,12.088019 42.5968634,11.2446483 42.3434664,10.3924279 C42.0917815,9.54109255 41.809278,8.71099631 41.495956,7.9021392 C41.1852023,7.09416706 40.8222281,6.33044312 40.4113141,5.61008241 C39.9978317,4.8897217 39.4970302,4.23130848 38.9071972,3.63395777 C38.6546563,3.49324849 38.3207886,3.44015065 37.9090184,3.47554921 C37.4963922,3.51094777 37.1642366,3.65165705 36.9108396,3.89767705 C36.5564262,4.60033847 36.3424084,5.36848723 36.2662181,6.2030083 C36.1908839,7.03752936 36.1523607,7.88974971 36.1523607,8.75878437 C36.1523607,9.62870399 36.1369514,10.489774 36.1027085,11.3419943 C36.0684657,12.1942147 35.9169411,12.9889123 35.6464227,13.7269723 C35.192705,13.6030774 34.745836,13.4756426 34.3075276,13.3437829 C34.2818455,13.3367032 34.2544512,13.3243137 34.2287691,13.3154641 C34.2467465,13.218118 34.2664362,13.1119223 34.2835576,13.0145763 C34.5189771,11.7499627 34.6114328,10.5163229 34.5617807,9.31277184 C34.5095604,8.10922078 34.4171047,6.87469598 34.2835576,5.61008241 C34.1825412,5.15344098 33.975372,4.67025063 33.6646182,4.16051136 C33.3530084,3.65165705 32.9771932,3.27377742 32.540597,3.02775742 C32.2529571,2.97554455 32.034659,2.99678368 31.8831344,3.09324476 C31.7298977,3.1905908 31.6168963,3.32687526 31.5424182,3.50209813 C31.4653718,3.67820597 31.4242804,3.87555295 31.4157196,4.09502402 C31.4063029,4.3144951 31.4020225,4.51184207 31.4020225,4.68794991 C31.6382981,6.07557348 31.6965109,7.50302043 31.5792292,8.97029076 C31.4842053,10.1579125 31.2778922,11.3198702 30.9722749,12.455279 C30.9123499,12.4968724 30.8524249,12.5340408 30.7950681,12.5933334 C30.4089801,12.874752 30.2317734,13.2296226 30.2643041,13.6606 C30.2908423,13.9703374 30.3875783,14.2738801 30.5211254,14.5747679 C30.4483594,14.8260976 30.3764494,15.0774274 30.2908423,15.334067 C30.1727045,15.580087 30.0417256,15.8915943 29.8996178,16.2694739 C29.756654,16.6473536 29.516098,16.9588609 29.1796621,17.2048809 C29.1796621,17.2570938 29.1454193,17.2880675 29.0786457,17.2969172 C29.01016,17.3057668 28.9305454,17.2969172 28.8380898,17.2703682 C28.744778,17.2447043 28.6643073,17.2004561 28.5975338,17.1385086 C28.5307603,17.0774461 28.4973735,17.0208084 28.4973735,16.9677105 C28.395501,16.8447005 28.3355761,16.6774423 28.3201668,16.4668209 C28.3030454,16.2561995 28.2953407,16.0367284 28.2953407,15.8084077 C28.395501,15.457077 28.3663946,15.0703477 28.2063093,14.6482199 C28.0462241,14.226977 27.8570324,13.8402477 27.6370221,13.488917 C27.5702486,13.365907 27.4478304,13.2296226 27.2714798,13.0809486 C27.0942731,12.9313897 26.9050814,12.8039549 26.7030486,12.6986441 C26.5010159,12.5933334 26.2989831,12.5402356 26.0960943,12.5402356 C25.8940615,12.5402356 25.7331201,12.628732 25.6158384,12.8039549 C25.2785464,13.488917 24.9455348,14.1738792 24.6185157,14.8597263 C24.2897844,15.5446884 23.9559167,16.168588 23.6203368,16.7305402 C23.502199,16.4845202 23.4345694,16.2031016 23.417448,15.8871695 C23.4003266,15.5712373 23.3917659,15.2376059 23.3917659,14.8862752 C23.2736281,13.832283 23.2162713,12.826079 23.2162713,11.8685479 C23.2162713,10.9110168 23.2736281,9.90569773 23.3917659,8.85170559 C23.4260087,8.58798631 23.3840612,8.29771811 23.2667795,7.98178596 C23.1486417,7.66585381 22.9877003,7.36673597 22.7865236,7.08620238 C22.5844909,6.80478383 22.3610563,6.56318865 22.1170761,6.36141686 C21.8722398,6.1587601 21.6359642,6.03221024 21.4091054,5.9791124 C21.1813905,5.92689953 20.9844941,5.97468758 20.8149921,6.1242465 C20.6472021,6.27380542 20.5461858,6.55876383 20.5119429,6.9800067 C20.3938051,8.38532955 20.3432969,9.78268773 20.3604183,11.1703113 C20.3655548,11.5676601 20.3972294,11.965009 20.4186312,12.3632428 C19.9811789,12.0243016 19.5146202,11.7154491 18.9838561,11.473854 C18.2339379,11.1304879 17.4506329,10.8543791 16.6339411,10.6437577 C15.8163933,10.4322513 15.0707554,10.2127802 14.3970275,9.98445952 C14.0434702,9.84375024 13.7481257,9.71189061 13.5127062,9.58888061 C13.2764305,9.46675558 13.0495717,9.2817981 12.8312736,9.0357781 C12.9314339,9.0357781 13.0324503,9.00037954 13.1343228,8.93046738 C13.1839749,8.89506882 13.2267784,8.85170559 13.2601652,8.79860775 C13.9510145,8.32426704 14.6752506,7.92868812 15.4337295,7.61275597 C16.1913524,7.29682382 16.9746574,7.13841526 17.7827885,7.13841526 C18.0866937,7.10390166 18.2972872,6.97646684 18.415425,6.75699577 C18.5327067,6.53663973 18.5874952,6.27380542 18.5789345,5.96583794 C18.5695177,5.65875543 18.5036003,5.32866385 18.3769018,4.97733314 C18.2502032,4.62600243 18.0866937,4.31007028 17.8838048,4.02865172 C17.6817721,3.74811813 17.4540572,3.51979741 17.2023723,3.34368957 C16.9498313,3.1684667 16.6878736,3.09766958 16.4190673,3.13306814 C15.5090638,3.13306814 14.6161817,3.2914767 13.740421,3.60740885 C12.8638043,3.923341 12.0222865,4.32776956 11.2132994,4.81980955 C10.7758471,5.11804242 10.4299944,5.46583328 10.1774534,5.86052723 C9.92491246,6.25610614 9.7639711,6.67734901 9.69719756,7.1251408 C9.63042402,7.57293259 9.64668937,8.04373344 9.74856182,8.53488847 C9.84957821,9.02692846 10.0421942,9.51011881 10.328978,9.98445952 C10.9016895,10.9154417 11.5754174,11.6579265 12.3510178,12.211029 C13.125762,12.7650164 13.9587192,13.2694459 14.8516012,13.7269723 C15.2899096,13.9721074 15.7367787,14.1614897 16.1913524,14.2933493 C16.6459261,14.4252089 17.0927952,14.5517588 17.5302475,14.6747688 C17.6655067,14.6747688 17.7870688,14.7145922 17.8966459,14.7942389 C18.006223,14.8721158 18.1200804,14.9119391 18.2382182,14.9119391 C18.0019426,15.0358341 17.8161752,15.1535343 17.6817721,15.2676947 C17.5465129,15.381855 17.4377918,15.5092899 17.3530408,15.6499991 C16.9994835,15.8783198 16.6459261,16.0933661 16.2923688,16.2960229 C15.9388115,16.4977947 15.5253291,16.6685927 15.0553462,16.809302 C14.6161817,17.0376227 14.1778733,17.2093057 13.740421,17.3234661 C13.3012566,17.4376264 12.9151686,17.4942641 12.5778766,17.4942641 L11.2132994,17.4942641 C11.1636472,17.4942641 11.0780401,17.4818746 10.9616145,17.4553257 C10.8426206,17.4287768 10.7244828,17.4022279 10.606345,17.3765639 C10.4890633,17.350015 10.4000319,17.3234661 10.3418191,17.2969172 C10.2827501,17.2703682 10.2784698,17.2570938 10.328978,17.2570938 C10.2116963,17.1517831 10.0593156,17.0208084 9.87440427,16.8623998 C9.68863685,16.7039913 9.49944515,16.5809813 9.3059731,16.4933698 C9.11250105,16.4057584 8.92245328,16.3747847 8.73754194,16.4004486 C8.55177452,16.4269975 8.40024995,16.564167 8.28296822,16.809302 C8.11432222,17.0376227 8.02101048,17.2792179 8.00474513,17.5340875 C7.98762371,17.7889571 8.01673013,18.0438268 8.09377652,18.2986964 C8.16911077,18.5535661 8.2658468,18.7951612 8.38312853,19.022597 C8.50126633,19.2518027 8.61940413,19.4535745 8.73754194,19.6287973 C9.19211565,20.2084488 9.73058433,20.6527007 10.3546601,20.9597832 C10.9778798,21.2677507 11.643047,21.4650977 12.3510178,21.5527091 C13.0581324,21.6403205 13.7823685,21.6358957 14.523726,21.5394346 C15.2650836,21.4429736 15.9721982,21.2712905 16.6459261,21.0261555 C17.2023723,20.8500477 17.8298724,20.5730539 18.5284263,20.1960593 C19.2278364,19.8181796 19.8681775,19.365963 20.4494497,18.8385245 C20.7268167,18.5871947 20.9725091,18.3190506 21.1925194,18.038517 C21.2764143,18.3544492 21.3697261,18.6650715 21.4724546,18.9703841 C21.8593987,20.1119877 22.4988838,21.1491655 23.3917659,22.0792627 C23.5099037,22.1323605 23.6494432,22.2066975 23.8095285,22.3040435 C23.9696138,22.4005046 24.1245627,22.4748416 24.2769433,22.5279394 C24.4284679,22.5801523 24.5680075,22.5978516 24.694706,22.5801523 C24.8205484,22.562453 24.9087237,22.465992 24.9592319,22.2907691 C25.2956678,21.7111176 25.6201188,21.135891 25.9325847,20.5650893 C26.2433385,19.9934025 26.5172812,19.4181759 26.7535568,18.8385245 L27.1833045,19.2863163 C27.4521108,19.6907448 27.8099485,20.0641996 28.2568175,20.4066807 C28.7028305,20.7491618 29.1616846,20.9863321 29.6342358,21.1181918 C30.1050749,21.2491664 30.5596486,21.2412018 30.997957,21.0916428 C31.4362654,20.9420839 31.7975273,20.5774787 32.0843111,19.9978273 C32.4216031,19.5234866 32.7041065,19.0057827 32.9309654,18.4438305 C33.1252935,17.96418 33.2922273,17.4606355 33.444608,16.9429316 C33.6175343,16.9579759 33.7904607,16.9739053 33.9676674,16.980985 C34.2116476,16.9898346 34.4556279,17.0154986 34.7004642,17.0597468 C34.9435884,17.103995 35.192705,17.2048809 35.445246,17.3624045 C35.4786328,17.7314345 35.4495263,18.2278993 35.3570707,18.8517989 C35.264615,19.4756986 35.1627426,20.1562359 35.0540215,20.8942959 C34.9435884,21.6323559 34.8554131,22.3828053 34.7894956,23.1474142 C34.7201538,23.9111382 34.7287145,24.6182244 34.8143216,25.267788 C34.8973605,25.9173516 35.0831279,26.4801887 35.3699117,26.9545294 C35.6549834,27.4288701 36.1027085,27.7368376 36.7088068,27.8775469 C36.9776131,27.9996719 37.1890627,28.0306457 37.3405873,27.9695831 C37.4921118,27.9076357 37.602545,27.7979001 37.6684625,27.6403765 C37.7360921,27.481968 37.7746153,27.2970105 37.7823199,27.0863891 C37.7900246,26.8757676 37.795161,26.6908101 37.795161,26.5332866 C37.711266,25.7775273 37.6898642,25.0359274 37.7318117,24.3067171 C37.7746153,23.5775068 37.8413888,22.857146 37.9338445,22.145635 C38.0271562,21.4341239 38.1238923,20.7270377 38.2240526,20.0243762 C38.325925,19.3217148 38.4012593,18.6013541 38.4526235,17.8632941 C39.10923,17.8632941 39.8172008,17.8986927 40.5748236,17.9686048 C41.3333026,18.039402 42.1003422,18.0748005 42.8742304,18.0748005 C42.9752468,18.2500234 43.0933846,18.4296711 43.2277877,18.6146286 C43.363047,18.7987011 43.5137155,18.9703841 43.6832175,19.1287927 C43.8501514,19.2863163 44.0324945,19.4137511 44.2268226,19.5102121 C44.4194386,19.6075582 44.6257517,19.6553462 44.845762,19.6553462 C45.0101276,19.6031334 45.1274094,19.5102121 45.219865,19.3978217 C45.5991045,19.955349 46.0416932,20.4456191 46.5510555,20.8677469 C47.2496095,21.4473984 48.0500359,21.8518269 48.9514787,22.0792627 C49.8520654,22.3084684 50.8074407,22.2907691 51.8184606,22.0270498 C52.5435527,21.7987291 53.2712131,21.4296991 54.004866,20.9199598 C54.7368067,20.4111055 55.3480414,19.8181796 55.8360019,19.1420671 C56.3248185,18.4650697 56.6407087,17.7491338 56.7845286,16.9942595 C56.9274925,16.2385002 56.7708315,15.5092899 56.3162578,14.8066284 C56.7545661,14.6836184 57.2391023,14.5694581 57.7690103,14.4641474 C58.2997743,14.3588366 58.7928713,14.2535259 59.247445,14.1482152 C59.5504941,14.0774181 59.7576633,13.9243193 59.8663843,13.6871489 C59.9759614,13.4499786 60.0179089,13.1818345 59.9930828,12.8827167 C59.9682568,12.5844838 59.8877861,12.2720915 59.7533829,11.9473097 Z" id="Fill-1"></path>
            <path d="M63.8441801,27.026091 C63.2615713,26.2917943 62.4121124,25.667731 61.2949451,25.1539011 C60.179494,24.6409601 58.8675518,24.2284738 57.3625508,23.9182201 C55.8575497,23.6079664 54.1912373,23.3803878 52.3653296,23.2328172 C50.5377057,23.0861357 48.6208458,23.0087945 46.6113177,23.0007937 C44.6026475,22.9927929 42.5390629,23.0452426 40.4205637,23.1599209 C39.9838217,23.1830344 39.5522279,23.2141487 39.11806,23.240818 C39.0845964,23.6035215 39.0399784,23.9608911 39.0202435,24.3280395 C38.9799156,25.0605582 38.9996505,25.8064117 39.0811643,26.5647109 C39.0811643,26.7167263 39.0768741,26.8954111 39.0691517,27.0945424 C41.2245466,27.0163123 43.3687869,26.9691964 45.5010147,26.9531947 C47.6915892,26.9363041 49.8152366,26.9603066 51.873673,27.026091 C53.9303934,27.0918755 55.9004517,27.2012199 57.782132,27.3567912 C59.6638123,27.5114736 61.3987679,27.7194947 62.9887148,27.9808546 C63.2186694,28.0128578 63.4100121,28.004857 63.5627431,27.9559632 C63.7137581,27.9070693 63.8261612,27.833284 63.8990946,27.7354963 C63.9711699,27.6377086 64.0046334,27.5239193 63.9994852,27.3932394 C63.9926209,27.2625595 63.9411385,27.1398803 63.8441801,27.026091" id="Fill-3"></path>
            <path d="M33.319746,24.8227074 C33.2490813,24.260262 33.2448244,23.6480349 33.2848393,23 C32.5969228,23.050655 31.908155,23.0995633 31.223644,23.1580786 C29.149678,23.3344978 27.1233894,23.5423581 25.1439267,23.7834061 C23.1670182,24.0235808 21.3161142,24.2759825 19.5937689,24.5406114 C17.8705721,24.8043668 16.309138,25.0655022 14.9069122,25.3222707 C13.5055378,25.5772926 12.3323337,25.8183406 11.3847457,26.0427948 C10.5606082,26.2349345 9.74753857,26.431441 8.94638831,26.631441 C8.14608944,26.8323144 7.36366958,27.0524017 6.59827736,27.2925764 C6.41608166,27.3406114 6.18280305,27.4052402 5.89759015,27.4855895 C5.61322864,27.5659389 5.33397541,27.6497817 5.06068186,27.7371179 C4.78738831,27.8253275 4.54815003,27.9257642 4.34211564,28.0384279 C4.13522987,28.1502183 4.026253,28.2707424 4.01348227,28.3982533 C3.96495351,28.6235808 4.04753754,28.7790393 4.25953161,28.8672489 C4.47152567,28.9554585 4.73545402,29 5.05131666,29 C5.3671793,29 5.69155576,28.9790393 6.02444604,28.939738 C6.3581877,28.8995633 6.62807572,28.8637555 6.83496149,28.831441 C7.65995044,28.7510917 8.48579077,28.6672489 9.31077972,28.5790393 C10.1357687,28.4908297 10.9607576,28.3982533 11.7848952,28.3021834 C13.399115,28.1423581 15.1521101,27.9781659 17.0455832,27.809607 C18.9382049,27.6419214 20.9193703,27.4812227 22.988228,27.3292576 C25.0570858,27.1764192 27.1863916,27.0366812 29.3769969,26.9082969 C30.9094841,26.819214 32.4555934,26.7554585 34,26.689083 C33.9489171,26.6235808 33.89528,26.5606987 33.8518596,26.4873362 C33.5777146,26.019214 33.4006272,25.4637555 33.319746,24.8227074" id="Fill-6"></path>
        </g>
    </g>
</svg>